<svg width="124" height="123" viewBox="0 0 124 123" fill="none" xmlns="http://www.w3.org/2000/svg">
<path fill-rule="evenodd" clip-rule="evenodd" d="M52.9392 20.4951C58.1439 18.3857 63.9755 18.3857 69.1803 20.4951C69.2655 20.1888 69.436 19.9175 69.6768 19.6865C70.0528 19.3349 70.504 19.1642 71.0205 19.1944C79.5247 19.6513 87.1764 24.5027 91.2279 32.0007C93.6799 36.5357 94.2765 41.9444 93.5646 47.0017C93.0631 50.5222 91.9098 54.0226 90.1298 57.1011C89.864 57.5581 89.4278 57.8544 88.9464 57.9599C88.3998 58.1407 87.7781 58.0603 87.2867 57.6887C85.6822 56.4733 84.1679 55.1626 82.7539 53.7715C82.8291 57.6235 82.4279 61.4855 81.5654 65.247C81.5554 65.2821 81.5454 65.3173 81.5404 65.3475C80.2217 70.0129 76.1501 73.3124 71.3966 73.7243C64.8981 77.0088 57.2213 77.0088 50.7228 73.7243C45.9694 73.3175 41.9028 70.0129 40.5841 65.3475C40.574 65.3173 40.564 65.2821 40.554 65.247C39.6915 61.4855 39.2904 57.6235 39.3706 53.7715C37.9516 55.1626 36.4423 56.4733 34.8327 57.6887C34.3413 58.0603 33.7196 58.1407 33.1731 57.9599C32.6916 57.8544 32.2554 57.5581 31.9897 57.1011C30.2096 54.0226 29.0563 50.5222 28.5549 47.0017C27.8429 41.9444 28.4446 36.5357 30.8916 32.0007C34.9431 24.5027 42.5998 19.6513 51.099 19.1944C51.6154 19.1642 52.0667 19.3349 52.4428 19.6865C52.6885 19.9175 52.854 20.1888 52.9392 20.4951ZM72.7905 23.2623C72.7905 23.2873 72.7956 23.3124 72.7956 23.3376C73.4023 35.0641 78.8779 46.0224 87.8984 53.5405C90.7164 47.4889 91.2079 39.5941 88.0389 33.7283C84.8999 27.9228 79.2238 23.9804 72.7805 23.0161C72.7805 23.1016 72.7855 23.1819 72.7905 23.2623ZM69.2354 24.5027C64.1009 21.8862 58.0186 21.8862 52.8841 24.5078C52.2171 33.6078 48.8525 42.2358 43.3168 49.3319C42.6901 54.349 42.9508 59.4615 44.079 64.3883C44.9765 67.517 47.6742 69.7367 50.8432 70.0883C51.0939 70.0481 51.3546 70.0632 51.6104 70.1335C51.6405 70.1335 51.6706 70.1335 51.7007 70.1335C54.7343 70.1436 57.5222 68.446 58.886 65.7241C58.9763 65.5432 59.0916 65.3826 59.2321 65.247C59.212 64.1421 59.202 63.0373 59.212 61.9374C59.0014 62.058 58.8059 62.1986 58.6253 62.3643C57.8732 63.0222 56.7249 62.9519 56.0631 62.2036C55.4061 61.4503 55.4764 60.3002 56.2235 59.6374C57.5523 58.4621 59.2521 57.8092 61.0221 57.7791C61.0422 57.7791 61.0622 57.7791 61.0773 57.7791C61.0874 57.7791 61.0923 57.7791 61.0973 57.7791C62.8674 57.8092 64.5672 58.4621 65.8959 59.6374C66.643 60.3002 66.7183 61.4503 66.0564 62.2036C65.3945 62.9519 64.2463 63.0222 63.4941 62.3643C63.2936 62.1835 63.073 62.0228 62.8373 61.8922C62.8323 63.0021 62.8373 64.112 62.8573 65.2169C63.0077 65.3625 63.1381 65.5283 63.2384 65.7241C64.5972 68.446 67.3852 70.1436 70.4188 70.1335C70.4489 70.1335 70.479 70.1335 70.5141 70.1335C70.7648 70.0632 71.0255 70.0481 71.2763 70.0883C74.4453 69.7367 77.143 67.517 78.0405 64.3883C79.1687 59.4615 79.4294 54.349 78.8026 49.3319C73.2669 42.2358 69.9023 33.6078 69.2354 24.5027ZM57.5172 72.2277C59.8588 72.6646 62.2607 72.6646 64.6023 72.2277C63.2334 71.4392 62.0199 70.3745 61.0622 69.0839C60.0995 70.3745 58.886 71.4392 57.5172 72.2277ZM49.344 23.0161C42.8957 23.9804 37.2195 27.9228 34.0806 33.7283C30.9116 39.5941 31.403 47.4889 34.221 53.5405C43.3268 45.952 48.8175 34.8683 49.344 23.0161ZM63.5042 46.5296C64.8881 44.8773 66.8938 43.878 69.0399 43.7624C71.1809 43.6469 73.297 44.4304 74.8464 45.9119C75.5634 46.6049 75.5935 47.76 74.9015 48.4832C74.2096 49.2064 73.0613 49.2315 72.3393 48.5385C71.5119 47.745 70.3787 47.3281 69.2354 47.3884C68.0871 47.4486 67.0192 47.986 66.277 48.8649C65.6352 49.6333 64.487 49.7337 63.7198 49.0859C62.9577 48.443 62.8573 47.293 63.5042 46.5296ZM47.1427 46.5296C48.5266 44.8773 50.5323 43.878 52.6785 43.7624C54.8195 43.6469 56.9356 44.4304 58.4849 45.9119C59.2069 46.6049 59.2321 47.76 58.5401 48.4832C57.8482 49.2064 56.6999 49.2315 55.9779 48.5385C55.1505 47.745 54.0173 47.3281 52.874 47.3884C51.7308 47.4486 50.6577 47.986 49.9156 48.8649C49.2738 49.6333 48.1255 49.7337 47.3633 49.0859C46.5961 48.443 46.5009 47.293 47.1427 46.5296Z" fill="#0F637A"/>
<path d="M26.2586 17.2134L27.3732 18.4499L25.5057 20.1329L27.7908 22.6679L30.1398 20.5505L31.2543 21.787L27.5449 25.1302L19.7429 16.4738L23.4534 13.1306L24.568 14.367L22.2179 16.4844L24.3912 18.8959L26.2586 17.2134Z" fill="#222222"/>
<path d="M30.4029 8.09546C31.9249 7.16986 33.261 7.60426 34.2292 9.19736L34.4202 9.51026L32.9409 10.41L32.69 9.99746C32.2572 9.28626 31.8081 9.18916 31.3102 9.49196C30.8124 9.79476 30.6925 10.2383 31.1253 10.9495C32.3709 12.9978 35.6628 11.5215 37.3931 14.3663C38.3624 15.9594 38.1195 17.3544 36.5833 18.2887C35.0471 19.2234 33.6968 18.7972 32.7276 17.2041L32.3557 16.5924L33.835 15.6927L34.2678 16.4039C34.7007 17.1152 35.169 17.1807 35.6669 16.8779C36.1647 16.5751 36.3222 16.1286 35.8894 15.4174C34.6427 13.3691 31.3519 14.8454 29.6206 12.0005C28.6523 10.4074 28.8809 9.02106 30.4029 8.09546Z" fill="#222222"/>
<path d="M43.0127 2.3894L43.5999 3.9464L41.8087 4.62211L45.3332 13.9663L43.6202 14.6125L40.0957 5.26821L38.3055 5.9439L37.7172 4.38631L43.0127 2.3894Z" fill="#222222"/>
<path d="M51.4548 0.384876C53.2603 0.0754757 54.319 0.924877 54.6329 2.76388L55.6276 8.57447C55.9425 10.4129 55.2273 11.5661 53.4218 11.875L50.5658 12.3642L48.5988 0.873575L51.4548 0.384876ZM52.0908 10.4134L53.1079 10.2392C53.6829 10.1411 53.9766 9.78658 53.8363 8.96558L52.8132 2.99037C52.673 2.16997 52.2778 1.93327 51.7027 2.03177L50.6857 2.20608L52.0908 10.4134Z" fill="#222222"/>
<path d="M69.7115 1.68223C69.1345 1.59993 68.727 1.86104 68.6102 2.68504L68.4334 3.92103L66.7194 3.67673L66.8799 2.55604C67.1431 0.710435 68.216 -0.212564 69.996 0.0414358C71.7751 0.294936 72.5472 1.48113 72.2841 3.32663C71.768 6.95183 67.966 7.78903 67.6958 9.68383C67.6846 9.76613 67.6724 9.84844 67.6775 9.93334L71.1045 10.422L70.8698 12.0699L65.6292 11.3227L65.8314 9.90534C66.316 6.51084 69.9879 6.46314 70.4624 3.13414C70.6107 2.09634 70.2876 1.76403 69.7115 1.68223Z" fill="#222222"/>
<path d="M81.1843 2.7719C82.882 3.3668 83.4571 4.6978 82.8394 6.458L80.8348 12.1787C80.217 13.9389 78.9379 14.6201 77.2401 14.0253C75.5434 13.4299 74.9683 12.0994 75.585 10.3392L77.5906 4.618C78.2073 2.8578 79.4875 2.177 81.1843 2.7719ZM77.7908 12.4535C78.3415 12.646 78.7916 12.4687 79.0669 11.6828L81.1497 5.7422C81.4251 4.9563 81.1833 4.5367 80.6336 4.3437C80.0839 4.1511 79.6328 4.3284 79.3575 5.1143L77.2757 11.0549C77.0003 11.8408 77.2411 12.2604 77.7908 12.4535Z" fill="#222222"/>
<path d="M90.9441 9.14889C90.4422 8.85269 89.9657 8.93909 89.543 9.65589L88.908 10.7308L87.4175 9.85099L87.9926 8.87609C88.9405 7.27029 90.2847 6.82679 91.8331 7.74069C93.3815 8.65459 93.6426 10.046 92.6947 11.6513C90.8333 14.8051 86.9999 14.1274 86.0266 15.7764C85.9849 15.848 85.9423 15.9196 85.9138 15.9999L88.8958 17.7596L88.0495 19.1932L83.4916 16.5023L84.2191 15.2694C85.9616 12.3163 89.3743 13.6737 91.0843 10.7781C91.6167 9.87479 91.446 9.44509 90.9441 9.14889Z" fill="#222222"/>
<path d="M101.458 15.0023L102.377 15.8222L94.621 24.5233L93.2535 23.3046L99.1707 16.667L98.1142 15.7246L98.9788 14.7554C100.035 15.6972 100.725 15.398 101.458 15.0023Z" fill="#222222"/>
<path d="M10.7 91.114C10.7 91.9274 10.5133 92.674 10.14 93.354C9.76667 94.0207 9.19333 94.5607 8.42 94.974C7.64667 95.3874 6.68667 95.594 5.54 95.594H3.42V100.634H0V86.594H5.54C6.66 86.594 7.60667 86.7874 8.38 87.174C9.15333 87.5607 9.73333 88.094 10.12 88.774C10.5067 89.454 10.7 90.234 10.7 91.114ZM5.28 92.874C5.93333 92.874 6.42 92.7207 6.74 92.414C7.06 92.1074 7.22 91.674 7.22 91.114C7.22 90.554 7.06 90.1207 6.74 89.814C6.42 89.5074 5.93333 89.354 5.28 89.354H3.42V92.874H5.28Z" fill="#063643"/>
<path d="M15.9005 86.594V100.634H12.4805V86.594H15.9005Z" fill="#063643"/>
<path d="M30.9389 100.634H27.5189L21.7989 91.974V100.634H18.3789V86.594H21.7989L27.5189 95.294V86.594H30.9389V100.634Z" fill="#063643"/>
<path d="M38.678 86.594C40.158 86.594 41.4513 86.8874 42.558 87.474C43.6646 88.0607 44.518 88.8874 45.118 89.954C45.7313 91.0074 46.038 92.2274 46.038 93.614C46.038 94.9874 45.7313 96.2074 45.118 97.274C44.518 98.3407 43.658 99.1674 42.538 99.754C41.4313 100.341 40.1446 100.634 38.678 100.634H33.418V86.594H38.678ZM38.458 97.674C39.7513 97.674 40.758 97.3207 41.478 96.614C42.198 95.9074 42.558 94.9074 42.558 93.614C42.558 92.3207 42.198 91.314 41.478 90.594C40.758 89.874 39.7513 89.514 38.458 89.514H36.838V97.674H38.458Z" fill="#063643"/>
<path d="M54.5892 100.774C53.2692 100.774 52.0559 100.467 50.9492 99.854C49.8559 99.2407 48.9825 98.3874 48.3292 97.294C47.6892 96.1874 47.3692 94.9474 47.3692 93.574C47.3692 92.2007 47.6892 90.9674 48.3292 89.874C48.9825 88.7807 49.8559 87.9274 50.9492 87.314C52.0559 86.7007 53.2692 86.394 54.5892 86.394C55.9092 86.394 57.1159 86.7007 58.2092 87.314C59.3159 87.9274 60.1826 88.7807 60.8092 89.874C61.4492 90.9674 61.7692 92.2007 61.7692 93.574C61.7692 94.9474 61.4492 96.1874 60.8092 97.294C60.1692 98.3874 59.3026 99.2407 58.2092 99.854C57.1159 100.467 55.9092 100.774 54.5892 100.774ZM54.5892 97.654C55.7092 97.654 56.6026 97.2807 57.2692 96.534C57.9492 95.7874 58.2892 94.8007 58.2892 93.574C58.2892 92.334 57.9492 91.3474 57.2692 90.614C56.6026 89.8674 55.7092 89.494 54.5892 89.494C53.4559 89.494 52.5492 89.8607 51.8692 90.594C51.2026 91.3274 50.8692 92.3207 50.8692 93.574C50.8692 94.814 51.2026 95.8074 51.8692 96.554C52.5492 97.2874 53.4559 97.654 54.5892 97.654Z" fill="#063643"/>
<path d="M70.8319 100.634L67.9119 95.334H67.0919V100.634H63.6719V86.594H69.4119C70.5185 86.594 71.4585 86.7874 72.2319 87.174C73.0185 87.5607 73.6052 88.094 73.9919 88.774C74.3785 89.4407 74.5719 90.1874 74.5719 91.014C74.5719 91.9474 74.3052 92.7807 73.7719 93.514C73.2519 94.2474 72.4785 94.7674 71.4519 95.074L74.6919 100.634H70.8319ZM67.0919 92.914H69.2119C69.8385 92.914 70.3052 92.7607 70.6119 92.454C70.9319 92.1474 71.0919 91.714 71.0919 91.154C71.0919 90.6207 70.9319 90.2007 70.6119 89.894C70.3052 89.5874 69.8385 89.434 69.2119 89.434H67.0919V92.914Z" fill="#063643"/>
<path d="M85.4587 98.154H80.2187L79.3787 100.634H75.7987L80.8787 86.594H84.8387L89.9187 100.634H86.2987L85.4587 98.154ZM84.5787 95.514L82.8387 90.374L81.1187 95.514H84.5787Z" fill="#063643"/>
<path d="M107.365 86.594V100.634H103.945V92.214L100.805 100.634H98.0448L94.8848 92.194V100.634H91.4648V86.594H95.5048L99.4448 96.314L103.345 86.594H107.365Z" fill="#063643"/>
<path d="M118.564 98.154H113.324L112.484 100.634H108.904L113.984 86.594H117.944L123.024 100.634H119.404L118.564 98.154ZM117.684 95.514L115.944 90.374L114.224 95.514H117.684Z" fill="#063643"/>
<path d="M49.3 113.114C49.3 113.927 49.1133 114.674 48.74 115.354C48.3667 116.021 47.7933 116.561 47.02 116.974C46.2467 117.387 45.2867 117.594 44.14 117.594H42.02V122.634H38.6V108.594H44.14C45.26 108.594 46.2067 108.787 46.98 109.174C47.7533 109.561 48.3333 110.094 48.72 110.774C49.1067 111.454 49.3 112.234 49.3 113.114ZM43.88 114.874C44.5333 114.874 45.02 114.721 45.34 114.414C45.66 114.107 45.82 113.674 45.82 113.114C45.82 112.554 45.66 112.121 45.34 111.814C45.02 111.507 44.5333 111.354 43.88 111.354H42.02V114.874H43.88Z" fill="#063643"/>
<path d="M54.5005 111.334V114.174H59.0805V116.814H54.5005V119.894H59.6805V122.634H51.0805V108.594H59.6805V111.334H54.5005Z" fill="#063643"/>
<path d="M72.0008 108.594V111.334H68.2808V122.634H64.8608V111.334H61.1408V108.594H72.0008Z" fill="#063643"/>
<path d="M78.7972 122.774C77.7705 122.774 76.8505 122.607 76.0372 122.274C75.2239 121.941 74.5705 121.447 74.0772 120.794C73.5972 120.141 73.3438 119.354 73.3172 118.434H76.9572C77.0105 118.954 77.1905 119.354 77.4972 119.634C77.8038 119.901 78.2038 120.034 78.6972 120.034C79.2038 120.034 79.6038 119.921 79.8972 119.694C80.1905 119.454 80.3372 119.127 80.3372 118.714C80.3372 118.367 80.2172 118.081 79.9772 117.854C79.7505 117.627 79.4638 117.441 79.1172 117.294C78.7838 117.147 78.3038 116.981 77.6772 116.794C76.7705 116.514 76.0305 116.234 75.4572 115.954C74.8839 115.674 74.3905 115.261 73.9772 114.714C73.5638 114.167 73.3572 113.454 73.3572 112.574C73.3572 111.267 73.8305 110.247 74.7772 109.514C75.7238 108.767 76.9572 108.394 78.4772 108.394C80.0238 108.394 81.2705 108.767 82.2172 109.514C83.1638 110.247 83.6705 111.274 83.7372 112.594H80.0372C80.0105 112.141 79.8439 111.787 79.5372 111.534C79.2305 111.267 78.8372 111.134 78.3572 111.134C77.9439 111.134 77.6105 111.247 77.3572 111.474C77.1039 111.687 76.9772 112.001 76.9772 112.414C76.9772 112.867 77.1905 113.221 77.6172 113.474C78.0438 113.727 78.7105 114.001 79.6172 114.294C80.5238 114.601 81.2572 114.894 81.8172 115.174C82.3905 115.454 82.8838 115.861 83.2972 116.394C83.7105 116.927 83.9172 117.614 83.9172 118.454C83.9172 119.254 83.7105 119.981 83.2972 120.634C82.8972 121.287 82.3105 121.807 81.5372 122.194C80.7639 122.581 79.8505 122.774 78.7972 122.774Z" fill="#063643"/>
</svg>
