<svg width="260" height="64" viewBox="0 0 260 64" fill="none" xmlns="http://www.w3.org/2000/svg">
<circle cx="31.6217" cy="31.6216" r="31.6216" transform="rotate(90 31.6217 31.6216)" fill="#7CCBE0"/>
<circle cx="31.6217" cy="31.6216" r="30.7432" transform="rotate(90 31.6217 31.6216)" stroke="black" stroke-opacity="0.1" stroke-width="1.75676"/>
<path fill-rule="evenodd" clip-rule="evenodd" d="M41.2807 35.0324C40.7562 34.7791 38.1773 33.5548 37.6964 33.386C37.2156 33.2171 36.866 33.1327 36.5163 33.6393C36.1666 34.1459 35.1614 35.2857 34.8554 35.6235C34.5494 35.9611 34.2435 36.0035 33.7189 35.7501C33.1944 35.4969 31.5043 34.9624 29.5008 33.2383C27.9414 31.8966 26.8887 30.2393 26.5827 29.7327C26.2767 29.2261 26.5501 28.9522 26.8128 28.6999C27.0486 28.4732 27.3372 28.1089 27.5995 27.8134C27.8618 27.5178 27.9492 27.3068 28.124 26.9691C28.2989 26.6313 28.2115 26.3358 28.0803 26.0825C27.9492 25.8292 26.9002 23.3384 26.4631 22.3251C26.0373 21.3384 25.6048 21.4719 25.2829 21.4564C24.9772 21.4417 24.6272 21.4386 24.2775 21.4386C23.9278 21.4386 23.3596 21.5653 22.8787 22.0718C22.3979 22.5785 21.0429 23.8028 21.0429 26.2935C21.0429 28.7844 22.9225 31.1907 23.1848 31.5285C23.447 31.8662 26.8835 36.9777 32.1454 39.1696C33.3969 39.691 34.374 40.0023 35.1357 40.2357C36.3923 40.6208 37.5358 40.5665 38.4396 40.4362C39.4473 40.2909 41.543 39.2119 41.9801 38.0298C42.4172 36.8478 42.4172 35.8345 42.2861 35.6235C42.155 35.4124 41.8053 35.2857 41.2807 35.0324ZM31.7096 47.64H31.7025C28.5716 47.6388 25.5007 46.8275 22.8218 45.2937L22.1846 44.9288L15.5807 46.6001L17.3434 40.3884L16.9285 39.7516C15.1819 37.0714 14.2595 33.9737 14.2608 30.793C14.2646 21.5117 22.092 13.9608 31.7165 13.9608C36.377 13.9625 40.7579 15.7158 44.0522 18.8975C47.3466 22.0793 49.1598 26.3087 49.158 30.8066C49.1541 40.0886 41.3267 47.64 31.7096 47.64ZM46.5597 16.4797C42.5963 12.6515 37.3254 10.5423 31.7096 10.5401C20.1386 10.5401 10.7212 19.6249 10.7166 30.7916C10.7151 34.3611 11.6817 37.8455 13.5187 40.9167L10.5405 51.4116L21.6692 48.5954C24.7354 50.2088 28.1877 51.0591 31.7012 51.0605H31.7098H31.7099C43.2797 51.0605 52.6979 41.9746 52.7027 30.8078C52.7048 25.3962 50.5233 20.3077 46.5597 16.4797Z" fill="#063643"/>
<circle cx="130" cy="31.6587" r="31.6216" transform="rotate(90 130 31.6587)" fill="#7CCBE0"/>
<circle cx="130" cy="31.6587" r="30.7432" transform="rotate(90 130 31.6587)" stroke="black" stroke-opacity="0.1" stroke-width="1.75676"/>
<path d="M139.901 22.8746H139.922M124.73 49.226H135.27C144.054 49.226 147.568 45.7124 147.568 36.9287V26.3881C147.568 17.6043 144.054 14.0908 135.27 14.0908H124.73C115.946 14.0908 112.432 17.6043 112.432 26.3881V36.9287C112.432 45.7124 115.946 49.226 124.73 49.226ZM136.149 31.6584C136.149 35.0542 133.396 37.807 130 37.807C126.604 37.807 123.851 35.0542 123.851 31.6584C123.851 28.2626 126.604 25.5097 130 25.5097C133.396 25.5097 136.149 28.2626 136.149 31.6584Z" stroke="#063643" stroke-width="2.63513" stroke-linecap="round" stroke-linejoin="round"/>
<circle cx="228.378" cy="31.6954" r="31.6216" transform="rotate(90 228.378 31.6954)" fill="#7CCBE0"/>
<circle cx="228.378" cy="31.6954" r="30.7432" transform="rotate(90 228.378 31.6954)" stroke="black" stroke-opacity="0.1" stroke-width="1.75676"/>
<path d="M238.041 15.5923H233.209C231.074 15.5923 229.026 16.4406 227.516 17.9506C226.006 19.4606 225.158 21.5086 225.158 23.6441V28.4752H220.327V34.9166H225.158V47.7995H231.599V34.9166H236.43L238.041 28.4752H231.599V23.6441C231.599 23.217 231.769 22.8074 232.071 22.5054C232.373 22.2034 232.782 22.0337 233.209 22.0337H238.041V15.5923Z" stroke="#063643" stroke-width="2.63513" stroke-linecap="round" stroke-linejoin="round"/>
</svg>
